<mxfile host="app.diagrams.net" agent="Mozilla/5.0 (Macintosh; Intel Mac OS X 10_15_7) AppleWebKit/537.36 (KHTML, like Gecko) Chrome/128.0.0.0 Safari/537.36 Edg/128.0.0.0" version="25.0.1">
  <diagram name="第 1 页" id="oH9uh8s5C2IZhBCsfqih">
    <mxGraphModel dx="1357" dy="871" grid="1" gridSize="10" guides="1" tooltips="1" connect="1" arrows="1" fold="1" page="1" pageScale="1" pageWidth="827" pageHeight="1169" math="0" shadow="0">
      <root>
        <mxCell id="0" />
        <mxCell id="1" parent="0" />
        <mxCell id="oVJdo9NQuvvBMKyW1Plg-44" value="" style="rounded=0;whiteSpace=wrap;html=1;dashed=1;dashPattern=8 8;strokeColor=#9d9d9d;" vertex="1" parent="1">
          <mxGeometry x="202.5" y="550" width="497.5" height="100" as="geometry" />
        </mxCell>
        <mxCell id="oVJdo9NQuvvBMKyW1Plg-5" value="应用(小赛助手)" style="rounded=0;whiteSpace=wrap;html=1;fillColor=#dae8fc;strokeColor=#6c8ebf;fontColor=#355cb7;fontStyle=0" vertex="1" parent="1">
          <mxGeometry x="70" y="50" width="140" height="40" as="geometry" />
        </mxCell>
        <mxCell id="oVJdo9NQuvvBMKyW1Plg-7" value="BI数据处理开发" style="rounded=0;whiteSpace=wrap;html=1;fontStyle=0;fillColor=#dae8fc;strokeColor=#6c8ebf;fontColor=#355cb7;" vertex="1" parent="1">
          <mxGeometry x="230" y="50" width="140" height="40" as="geometry" />
        </mxCell>
        <mxCell id="oVJdo9NQuvvBMKyW1Plg-8" value="BI图表可视化渲染" style="rounded=0;whiteSpace=wrap;html=1;fillColor=#dae8fc;strokeColor=#6c8ebf;fontColor=#355cb7;fontStyle=0" vertex="1" parent="1">
          <mxGeometry x="390" y="50" width="140" height="40" as="geometry" />
        </mxCell>
        <mxCell id="oVJdo9NQuvvBMKyW1Plg-9" value="BI图表结果洞察前段展示" style="rounded=0;whiteSpace=wrap;html=1;fillColor=#dae8fc;strokeColor=#6c8ebf;fontColor=#355cb7;fontStyle=0" vertex="1" parent="1">
          <mxGeometry x="550" y="50" width="150" height="40" as="geometry" />
        </mxCell>
        <mxCell id="oVJdo9NQuvvBMKyW1Plg-10" value="智能分析问答&lt;div&gt;&amp;amp;&lt;/div&gt;&lt;div&gt;大模型平台&lt;/div&gt;" style="rounded=0;whiteSpace=wrap;html=1;fontColor=#ffffff;strokeColor=#0762fe;fillColor=#0762fe;fontStyle=1;fontSize=15;" vertex="1" parent="1">
          <mxGeometry x="70" y="110" width="120" height="540" as="geometry" />
        </mxCell>
        <mxCell id="oVJdo9NQuvvBMKyW1Plg-11" value="" style="rounded=0;whiteSpace=wrap;html=1;dashed=1;dashPattern=8 8;strokeColor=#9d9d9d;" vertex="1" parent="1">
          <mxGeometry x="410" y="110" width="290" height="190" as="geometry" />
        </mxCell>
        <mxCell id="oVJdo9NQuvvBMKyW1Plg-12" value="语义分析检索增强" style="text;html=1;align=center;verticalAlign=middle;resizable=0;points=[];autosize=1;strokeColor=none;fillColor=none;fontStyle=1;fontSize=14;" vertex="1" parent="1">
          <mxGeometry x="490" y="110" width="140" height="30" as="geometry" />
        </mxCell>
        <mxCell id="oVJdo9NQuvvBMKyW1Plg-13" value="分词检索" style="rounded=0;whiteSpace=wrap;html=1;fillColor=#dae8fc;strokeColor=#6c8ebf;fontColor=#355cb7;" vertex="1" parent="1">
          <mxGeometry x="425" y="150" width="120" height="60" as="geometry" />
        </mxCell>
        <mxCell id="oVJdo9NQuvvBMKyW1Plg-14" value="向量相似度" style="rounded=0;whiteSpace=wrap;html=1;fillColor=#dae8fc;strokeColor=#6c8ebf;fontColor=#355cb7;" vertex="1" parent="1">
          <mxGeometry x="565" y="150" width="120" height="60" as="geometry" />
        </mxCell>
        <mxCell id="oVJdo9NQuvvBMKyW1Plg-15" value="规则匹配" style="rounded=0;whiteSpace=wrap;html=1;fillColor=#dae8fc;strokeColor=#6c8ebf;fontColor=#355cb7;" vertex="1" parent="1">
          <mxGeometry x="425" y="230" width="120" height="60" as="geometry" />
        </mxCell>
        <mxCell id="oVJdo9NQuvvBMKyW1Plg-16" value="LLM" style="rounded=0;whiteSpace=wrap;html=1;fillColor=#dae8fc;strokeColor=#6c8ebf;fontColor=#355cb7;" vertex="1" parent="1">
          <mxGeometry x="565" y="230" width="120" height="60" as="geometry" />
        </mxCell>
        <mxCell id="oVJdo9NQuvvBMKyW1Plg-17" value="" style="rounded=0;whiteSpace=wrap;html=1;dashed=1;strokeColor=#9d9d9d;dashPattern=8 8;" vertex="1" parent="1">
          <mxGeometry x="205" y="110" width="185" height="190" as="geometry" />
        </mxCell>
        <mxCell id="oVJdo9NQuvvBMKyW1Plg-19" value="数据建模" style="text;html=1;align=center;verticalAlign=middle;resizable=0;points=[];autosize=1;strokeColor=none;fillColor=none;fontSize=14;fontStyle=1" vertex="1" parent="1">
          <mxGeometry x="255" y="110" width="80" height="30" as="geometry" />
        </mxCell>
        <mxCell id="oVJdo9NQuvvBMKyW1Plg-20" value="数据集元数据" style="rounded=0;whiteSpace=wrap;html=1;fillColor=#dae8fc;strokeColor=#6c8ebf;fontColor=#355cb7;" vertex="1" parent="1">
          <mxGeometry x="237.5" y="170" width="122.5" height="50" as="geometry" />
        </mxCell>
        <mxCell id="oVJdo9NQuvvBMKyW1Plg-22" value="语义建模" style="rounded=0;whiteSpace=wrap;html=1;fillColor=#dae8fc;strokeColor=#6c8ebf;fontColor=#355cb7;" vertex="1" parent="1">
          <mxGeometry x="237.5" y="240" width="122.5" height="50" as="geometry" />
        </mxCell>
        <mxCell id="oVJdo9NQuvvBMKyW1Plg-23" value="" style="rounded=0;whiteSpace=wrap;html=1;strokeColor=#9d9d9d;dashed=1;dashPattern=8 8;" vertex="1" parent="1">
          <mxGeometry x="205" y="320" width="495" height="210" as="geometry" />
        </mxCell>
        <mxCell id="oVJdo9NQuvvBMKyW1Plg-27" value="语义检索模型" style="rounded=0;whiteSpace=wrap;html=1;fillColor=#dae8fc;strokeColor=#6c8ebf;fontColor=#355cb7;" vertex="1" parent="1">
          <mxGeometry x="285" y="345" width="115" height="40" as="geometry" />
        </mxCell>
        <mxCell id="oVJdo9NQuvvBMKyW1Plg-36" value="召回大模型" style="rounded=0;whiteSpace=wrap;html=1;fillColor=#dae8fc;strokeColor=#6c8ebf;fontColor=#355cb7;" vertex="1" parent="1">
          <mxGeometry x="425" y="345" width="115" height="40" as="geometry" />
        </mxCell>
        <mxCell id="oVJdo9NQuvvBMKyW1Plg-39" value="AI模型能力中心" style="text;html=1;align=center;verticalAlign=middle;resizable=0;points=[];autosize=1;strokeColor=none;fillColor=none;fontStyle=1;fontSize=14;" vertex="1" parent="1">
          <mxGeometry x="400" y="550" width="120" height="30" as="geometry" />
        </mxCell>
        <mxCell id="oVJdo9NQuvvBMKyW1Plg-40" value="数据集研发" style="rounded=0;whiteSpace=wrap;html=1;fillColor=#dae8fc;strokeColor=#6c8ebf;fontColor=#355cb7;" vertex="1" parent="1">
          <mxGeometry x="210" y="590" width="110" height="40" as="geometry" />
        </mxCell>
        <mxCell id="oVJdo9NQuvvBMKyW1Plg-41" value="模型训研发" style="rounded=0;whiteSpace=wrap;html=1;fillColor=#dae8fc;strokeColor=#6c8ebf;fontColor=#355cb7;" vertex="1" parent="1">
          <mxGeometry x="330" y="590" width="110" height="40" as="geometry" />
        </mxCell>
        <mxCell id="oVJdo9NQuvvBMKyW1Plg-42" value="模型部署" style="rounded=0;whiteSpace=wrap;html=1;fillColor=#dae8fc;strokeColor=#6c8ebf;fontColor=#355cb7;" vertex="1" parent="1">
          <mxGeometry x="455" y="590" width="110" height="40" as="geometry" />
        </mxCell>
        <mxCell id="oVJdo9NQuvvBMKyW1Plg-43" value="模型评测" style="rounded=0;whiteSpace=wrap;html=1;fillColor=#dae8fc;strokeColor=#6c8ebf;fontColor=#355cb7;" vertex="1" parent="1">
          <mxGeometry x="575" y="590" width="110" height="40" as="geometry" />
        </mxCell>
        <mxCell id="oVJdo9NQuvvBMKyW1Plg-46" value="场景大模型" style="text;html=1;align=center;verticalAlign=middle;resizable=0;points=[];autosize=1;strokeColor=none;fillColor=none;" vertex="1" parent="1">
          <mxGeometry x="205" y="350" width="80" height="30" as="geometry" />
        </mxCell>
        <mxCell id="oVJdo9NQuvvBMKyW1Plg-47" value="NL2SQL大模型" style="rounded=0;whiteSpace=wrap;html=1;fillColor=#dae8fc;strokeColor=#6c8ebf;fontColor=#355cb7;" vertex="1" parent="1">
          <mxGeometry x="565" y="345" width="115" height="40" as="geometry" />
        </mxCell>
        <mxCell id="oVJdo9NQuvvBMKyW1Plg-49" value="数据挖掘算法" style="rounded=0;whiteSpace=wrap;html=1;fillColor=#dae8fc;strokeColor=#6c8ebf;fontColor=#355cb7;" vertex="1" parent="1">
          <mxGeometry x="285" y="405" width="115" height="40" as="geometry" />
        </mxCell>
        <mxCell id="oVJdo9NQuvvBMKyW1Plg-50" value="场景小模型" style="text;html=1;align=center;verticalAlign=middle;resizable=0;points=[];autosize=1;strokeColor=none;fillColor=none;" vertex="1" parent="1">
          <mxGeometry x="205" y="410" width="80" height="30" as="geometry" />
        </mxCell>
        <mxCell id="oVJdo9NQuvvBMKyW1Plg-52" value="拒识模型" style="rounded=0;whiteSpace=wrap;html=1;fillColor=#dae8fc;strokeColor=#6c8ebf;fontColor=#355cb7;" vertex="1" parent="1">
          <mxGeometry x="565" y="405" width="115" height="40" as="geometry" />
        </mxCell>
        <mxCell id="oVJdo9NQuvvBMKyW1Plg-54" value="数据分析模型" style="rounded=0;whiteSpace=wrap;html=1;fillColor=#dae8fc;strokeColor=#6c8ebf;fontColor=#355cb7;" vertex="1" parent="1">
          <mxGeometry x="425" y="405" width="115" height="40" as="geometry" />
        </mxCell>
        <mxCell id="oVJdo9NQuvvBMKyW1Plg-55" value="检索增强" style="text;html=1;align=center;verticalAlign=middle;resizable=0;points=[];autosize=1;strokeColor=none;fillColor=none;" vertex="1" parent="1">
          <mxGeometry x="210" y="470" width="70" height="30" as="geometry" />
        </mxCell>
        <mxCell id="oVJdo9NQuvvBMKyW1Plg-56" value="RAG检索增强模块" style="rounded=0;whiteSpace=wrap;html=1;fillColor=#dae8fc;strokeColor=#6c8ebf;fontColor=#355cb7;" vertex="1" parent="1">
          <mxGeometry x="285" y="465" width="395" height="40" as="geometry" />
        </mxCell>
        <mxCell id="oVJdo9NQuvvBMKyW1Plg-57" value="基数设施" style="rounded=0;whiteSpace=wrap;html=1;fillColor=#00299d;fontColor=#ffffff;fontSize=14;fontStyle=1;strokeColor=none;" vertex="1" parent="1">
          <mxGeometry x="70" y="672" width="120" height="60" as="geometry" />
        </mxCell>
        <mxCell id="oVJdo9NQuvvBMKyW1Plg-58" value="存储底座" style="rounded=0;whiteSpace=wrap;html=1;fillColor=#d0d0d0;strokeColor=none;" vertex="1" parent="1">
          <mxGeometry x="202.5" y="672" width="110" height="60" as="geometry" />
        </mxCell>
        <mxCell id="oVJdo9NQuvvBMKyW1Plg-59" value="数据存算引擎" style="rounded=0;whiteSpace=wrap;html=1;fillColor=#e1e1e1;strokeColor=none;" vertex="1" parent="1">
          <mxGeometry x="330" y="672" width="110" height="60" as="geometry" />
        </mxCell>
        <mxCell id="oVJdo9NQuvvBMKyW1Plg-60" value="交互式查询引擎" style="rounded=0;whiteSpace=wrap;html=1;fillColor=#e1e1e1;strokeColor=none;" vertex="1" parent="1">
          <mxGeometry x="460" y="672" width="110" height="60" as="geometry" />
        </mxCell>
        <mxCell id="oVJdo9NQuvvBMKyW1Plg-61" value="多模态存储引擎" style="rounded=0;whiteSpace=wrap;html=1;fillColor=#e1e1e1;strokeColor=none;" vertex="1" parent="1">
          <mxGeometry x="590" y="672" width="110" height="60" as="geometry" />
        </mxCell>
      </root>
    </mxGraphModel>
  </diagram>
</mxfile>
